# xmcd
#
# Track frame offsets:
#	150
#	16665
#	35294
#	50851
#	63588
#	78976
#	98753
#	115079
#	128308
#	143147
#	158543
#	174098
#	189045
#	204261
#	223732
#	238383
#	252525
#	269813
#	286457
#	300897
#	315460
#	329420
#
# Disc length: 4576 seconds
#
# Revision: 0
# Processed by: cddbd v1.5.2PL0 Copyright (c) Steve Scherf et al.
# Submitted via: audiograbber 1.83.01
#
DISCID=2b11de16
DTITLE=Various Artist - Promo Only Country Radio May 2017
DYEAR=2017
DGENRE=Country
TTITLE0=Aubrie Sellers - Liar Liar
TTITLE1=Danny Worsnop - Anyone But Me
TTITLE2=Dan and Shay - When I Pray For You
TTITLE3=Coffey Anderson - Bud Light Blue
TTITLE4=Dustin Lynch - Small Town Boy
TTITLE5=Sarah Dunn Band - Figure It Out
TTITLE6=Brett Eldredge - Somethin' I'm Good At
TTITLE7=Cort Carpenter - Wrong Kinda Right
TTITLE8=Robbie Robinson - This Is The Life
TTITLE9=A Thousand Horses - Preachin' To The Choir
TTITLE10=The Railers - 11:59 (Central Standard Time)
TTITLE11=Big and Rich - California
TTITLE12=Cypress Spring - Denim
TTITLE13=Rutledge - Rub A Little Dirt On It
TTITLE14=Jacob Davis - What I Wanna Be
TTITLE15=Cash Creek - The Hard Way
TTITLE16=Erin Durant - Kind Woman
TTITLE17=Rachael Turner - Hurts Don't It
TTITLE18=Taylon Hope - Showin' My Roots
TTITLE19=Smith and Wesley - The Little Things
TTITLE20=Reg Poole - Music's Been Good To Me
TTITLE21=Kayla Calabrese - Me Time
EXTD=
EXTT0=
EXTT1=
EXTT2=
EXTT3=
EXTT4=
EXTT5=
EXTT6=
EXTT7=
EXTT8=
EXTT9=
EXTT10=
EXTT11=
EXTT12=
EXTT13=
EXTT14=
EXTT15=
EXTT16=
EXTT17=
EXTT18=
EXTT19=
EXTT20=
EXTT21=
PLAYORDER=
